<mxfile host="Electron" agent="Mozilla/5.0 (Windows NT 10.0; Win64; x64) AppleWebKit/537.36 (KHTML, like Gecko) draw.io/24.7.17 Chrome/128.0.6613.36 Electron/32.0.1 Safari/537.36" version="24.7.17">
  <diagram name="Page-1" id="OD9T5F2dHPoxvijF9nYm">
    <mxGraphModel dx="724" dy="461" grid="1" gridSize="10" guides="1" tooltips="1" connect="1" arrows="1" fold="1" page="1" pageScale="1" pageWidth="850" pageHeight="1100" math="0" shadow="0">
      <root>
        <mxCell id="0" />
        <mxCell id="1" parent="0" />
        <mxCell id="In7xI8E0xvDwylisbrGG-25" style="edgeStyle=none;rounded=0;orthogonalLoop=1;jettySize=auto;html=1;exitX=0.5;exitY=1;exitDx=0;exitDy=0;endArrow=none;endFill=0;dashed=1;dashPattern=8 8;" parent="1" source="In7xI8E0xvDwylisbrGG-21" edge="1">
          <mxGeometry relative="1" as="geometry">
            <mxPoint x="515" y="1480" as="targetPoint" />
          </mxGeometry>
        </mxCell>
        <mxCell id="In7xI8E0xvDwylisbrGG-26" style="edgeStyle=none;rounded=0;orthogonalLoop=1;jettySize=auto;html=1;exitX=0.5;exitY=1;exitDx=0;exitDy=0;endArrow=none;endFill=0;dashed=1;dashPattern=8 8;" parent="1" source="In7xI8E0xvDwylisbrGG-22" edge="1">
          <mxGeometry relative="1" as="geometry">
            <mxPoint x="725" y="1480" as="targetPoint" />
          </mxGeometry>
        </mxCell>
        <mxCell id="In7xI8E0xvDwylisbrGG-126" value="" style="edgeStyle=none;rounded=0;orthogonalLoop=1;jettySize=auto;html=1;endArrow=none;endFill=0;dashed=1;dashPattern=8 8;exitX=0.5;exitY=1;exitDx=0;exitDy=0;" parent="1" source="In7xI8E0xvDwylisbrGG-20" edge="1">
          <mxGeometry relative="1" as="geometry">
            <mxPoint x="305" y="1480" as="targetPoint" />
            <mxPoint x="305" y="120" as="sourcePoint" />
          </mxGeometry>
        </mxCell>
        <mxCell id="2jw7YrfokJ4P9lov2_Ub-85" value="&lt;font style=&quot;font-size: 9px;&quot;&gt;[valid token&lt;/font&gt;&lt;span style=&quot;background-color: initial;&quot;&gt;]&lt;/span&gt;" style="text;strokeColor=none;align=left;fillColor=none;html=1;verticalAlign=middle;whiteSpace=wrap;rounded=0;fontSize=9;" parent="1" vertex="1">
          <mxGeometry x="30" y="315" width="60" height="20" as="geometry" />
        </mxCell>
        <mxCell id="2jw7YrfokJ4P9lov2_Ub-86" value="&lt;font style=&quot;font-size: 9px;&quot;&gt;[else&lt;/font&gt;&lt;span style=&quot;background-color: initial;&quot;&gt;]&lt;/span&gt;" style="text;strokeColor=none;align=left;fillColor=none;html=1;verticalAlign=middle;whiteSpace=wrap;rounded=0;fontSize=9;" parent="1" vertex="1">
          <mxGeometry x="30" y="1320" width="60" height="20" as="geometry" />
        </mxCell>
        <mxCell id="2jw7YrfokJ4P9lov2_Ub-87" value="Alt" style="shape=umlFrame;whiteSpace=wrap;html=1;pointerEvents=0;width=40;height=20;" parent="1" vertex="1">
          <mxGeometry x="30" y="295" width="750" height="1115" as="geometry" />
        </mxCell>
        <mxCell id="2jw7YrfokJ4P9lov2_Ub-88" value="" style="edgeStyle=none;orthogonalLoop=1;jettySize=auto;html=1;rounded=0;endArrow=none;endFill=0;dashed=1;dashPattern=8 8;" parent="1" edge="1">
          <mxGeometry width="80" relative="1" as="geometry">
            <mxPoint x="30" y="1320" as="sourcePoint" />
            <mxPoint x="780" y="1320" as="targetPoint" />
            <Array as="points" />
          </mxGeometry>
        </mxCell>
        <mxCell id="2jw7YrfokJ4P9lov2_Ub-90" value="Respond with not vaild" style="html=1;verticalAlign=bottom;endArrow=open;dashed=1;endSize=8;curved=0;rounded=0;" parent="1" edge="1">
          <mxGeometry relative="1" as="geometry">
            <mxPoint x="310" y="1370" as="targetPoint" />
            <mxPoint x="510" y="1370" as="sourcePoint" />
          </mxGeometry>
        </mxCell>
        <mxCell id="2jw7YrfokJ4P9lov2_Ub-91" value="Click like button" style="html=1;verticalAlign=bottom;endArrow=block;curved=0;rounded=0;" parent="1" edge="1">
          <mxGeometry relative="1" as="geometry">
            <mxPoint x="140" y="150" as="sourcePoint" />
            <mxPoint x="300" y="150" as="targetPoint" />
          </mxGeometry>
        </mxCell>
        <mxCell id="2jw7YrfokJ4P9lov2_Ub-92" value="Display log in pop-up" style="html=1;verticalAlign=bottom;endArrow=open;curved=0;rounded=0;dashed=1;endFill=0;" parent="1" edge="1">
          <mxGeometry x="0.0071" relative="1" as="geometry">
            <mxPoint x="300" y="1439.9999999999998" as="sourcePoint" />
            <mxPoint x="140" y="1439.9999999999998" as="targetPoint" />
            <mxPoint as="offset" />
          </mxGeometry>
        </mxCell>
        <mxCell id="2jw7YrfokJ4P9lov2_Ub-93" value="Alt" style="shape=umlFrame;whiteSpace=wrap;html=1;pointerEvents=0;width=40;height=20;" parent="1" vertex="1">
          <mxGeometry x="20" y="210" width="770" height="1250" as="geometry" />
        </mxCell>
        <mxCell id="2jw7YrfokJ4P9lov2_Ub-94" value="&lt;font style=&quot;font-size: 9px;&quot;&gt;[token exists&lt;/font&gt;&lt;span style=&quot;background-color: initial;&quot;&gt;]&lt;/span&gt;" style="text;strokeColor=none;align=left;fillColor=none;html=1;verticalAlign=middle;whiteSpace=wrap;rounded=0;fontSize=9;" parent="1" vertex="1">
          <mxGeometry x="20" y="230" width="60" height="20" as="geometry" />
        </mxCell>
        <mxCell id="2jw7YrfokJ4P9lov2_Ub-95" value="&lt;font style=&quot;font-size: 9px;&quot;&gt;[else&lt;/font&gt;&lt;span style=&quot;background-color: initial;&quot;&gt;]&lt;/span&gt;" style="text;strokeColor=none;align=left;fillColor=none;html=1;verticalAlign=middle;whiteSpace=wrap;rounded=0;fontSize=9;" parent="1" vertex="1">
          <mxGeometry x="20" y="1410" width="60" height="20" as="geometry" />
        </mxCell>
        <mxCell id="2jw7YrfokJ4P9lov2_Ub-96" value="" style="edgeStyle=none;orthogonalLoop=1;jettySize=auto;html=1;rounded=0;endArrow=none;endFill=0;dashed=1;dashPattern=8 8;" parent="1" edge="1">
          <mxGeometry width="80" relative="1" as="geometry">
            <mxPoint x="20" y="1410" as="sourcePoint" />
            <mxPoint x="790" y="1410" as="targetPoint" />
            <Array as="points" />
          </mxGeometry>
        </mxCell>
        <mxCell id="2jw7YrfokJ4P9lov2_Ub-97" value="Check if user has a token" style="html=1;verticalAlign=middle;endArrow=block;curved=0;rounded=0;" parent="1" edge="1">
          <mxGeometry relative="1" as="geometry">
            <mxPoint x="310" y="170" as="sourcePoint" />
            <mxPoint x="310" y="190" as="targetPoint" />
            <Array as="points">
              <mxPoint x="410" y="170" />
              <mxPoint x="410" y="190" />
            </Array>
            <mxPoint as="offset" />
          </mxGeometry>
        </mxCell>
        <mxCell id="2jw7YrfokJ4P9lov2_Ub-98" value="Request liking post&amp;nbsp;&lt;div&gt;with user and post IDs&lt;/div&gt;" style="html=1;verticalAlign=bottom;endArrow=block;curved=0;rounded=0;" parent="1" edge="1">
          <mxGeometry relative="1" as="geometry">
            <mxPoint x="310" y="255" as="sourcePoint" />
            <mxPoint x="510" y="255" as="targetPoint" />
          </mxGeometry>
        </mxCell>
        <mxCell id="2jw7YrfokJ4P9lov2_Ub-99" value="Check token validation" style="html=1;verticalAlign=bottom;endArrow=block;curved=0;rounded=0;" parent="1" edge="1">
          <mxGeometry relative="1" as="geometry">
            <mxPoint x="520" y="275" as="sourcePoint" />
            <mxPoint x="720" y="275" as="targetPoint" />
          </mxGeometry>
        </mxCell>
        <mxCell id="2jw7YrfokJ4P9lov2_Ub-102" value="Respond with success" style="html=1;verticalAlign=bottom;endArrow=open;dashed=1;endSize=8;curved=0;rounded=0;" parent="1" edge="1">
          <mxGeometry relative="1" as="geometry">
            <mxPoint x="520" y="325" as="targetPoint" />
            <mxPoint x="720" y="325" as="sourcePoint" />
          </mxGeometry>
        </mxCell>
        <mxCell id="2jw7YrfokJ4P9lov2_Ub-104" value="Display log in pop-up" style="html=1;verticalAlign=bottom;endArrow=open;curved=0;rounded=0;dashed=1;endFill=0;" parent="1" edge="1">
          <mxGeometry x="0.0071" relative="1" as="geometry">
            <mxPoint x="300" y="1390" as="sourcePoint" />
            <mxPoint x="140" y="1390" as="targetPoint" />
            <mxPoint as="offset" />
          </mxGeometry>
        </mxCell>
        <mxCell id="2jw7YrfokJ4P9lov2_Ub-105" value="Respond with failure" style="html=1;verticalAlign=bottom;endArrow=open;dashed=1;endSize=8;curved=0;rounded=0;" parent="1" edge="1">
          <mxGeometry relative="1" as="geometry">
            <mxPoint x="520" y="1350" as="targetPoint" />
            <mxPoint x="720" y="1350" as="sourcePoint" />
          </mxGeometry>
        </mxCell>
        <mxCell id="In7xI8E0xvDwylisbrGG-20" value="Application&lt;div&gt;User Interface&lt;/div&gt;" style="html=1;whiteSpace=wrap;strokeWidth=2;fontStyle=1" parent="1" vertex="1">
          <mxGeometry x="250" y="60" width="110" height="50" as="geometry" />
        </mxCell>
        <mxCell id="In7xI8E0xvDwylisbrGG-19" value="User" style="shape=umlActor;verticalLabelPosition=top;verticalAlign=bottom;html=1;strokeWidth=2;fontStyle=1;labelBorderColor=none;labelPosition=center;align=center;" parent="1" vertex="1">
          <mxGeometry x="120" y="50" width="30" height="60" as="geometry" />
        </mxCell>
        <mxCell id="In7xI8E0xvDwylisbrGG-21" value="Application&lt;div&gt;Server&lt;/div&gt;" style="html=1;whiteSpace=wrap;strokeWidth=2;fontStyle=1" parent="1" vertex="1">
          <mxGeometry x="460" y="60" width="110" height="50" as="geometry" />
        </mxCell>
        <mxCell id="In7xI8E0xvDwylisbrGG-22" value="Database&lt;div&gt;Server&lt;/div&gt;" style="html=1;whiteSpace=wrap;strokeWidth=2;fontStyle=1" parent="1" vertex="1">
          <mxGeometry x="670" y="60" width="110" height="50" as="geometry" />
        </mxCell>
        <mxCell id="In7xI8E0xvDwylisbrGG-39" value="" style="edgeStyle=none;orthogonalLoop=1;jettySize=auto;html=1;rounded=0;endArrow=none;endFill=0;dashed=1;dashPattern=8 8;" parent="1" edge="1">
          <mxGeometry width="80" relative="1" as="geometry">
            <mxPoint x="135" y="110" as="sourcePoint" />
            <mxPoint x="135" y="1480" as="targetPoint" />
            <Array as="points" />
          </mxGeometry>
        </mxCell>
        <mxCell id="2jw7YrfokJ4P9lov2_Ub-107" value="Check if post likes data has user ID&lt;div&gt;(liked post)&lt;/div&gt;" style="html=1;verticalAlign=bottom;endArrow=block;curved=0;rounded=0;" parent="1" edge="1">
          <mxGeometry relative="1" as="geometry">
            <mxPoint x="520" y="460" as="sourcePoint" />
            <mxPoint x="720" y="460.28999999999996" as="targetPoint" />
            <mxPoint as="offset" />
          </mxGeometry>
        </mxCell>
        <mxCell id="2jw7YrfokJ4P9lov2_Ub-110" value="[not liked]" style="text;strokeColor=none;align=left;fillColor=none;html=1;verticalAlign=middle;whiteSpace=wrap;rounded=0;fontSize=9;" parent="1" vertex="1">
          <mxGeometry x="450" y="500" width="60" height="20" as="geometry" />
        </mxCell>
        <mxCell id="2jw7YrfokJ4P9lov2_Ub-111" value="&lt;font style=&quot;font-size: 9px;&quot;&gt;[else&lt;/font&gt;&lt;span style=&quot;background-color: initial;&quot;&gt;]&lt;/span&gt;" style="text;strokeColor=none;align=left;fillColor=none;html=1;verticalAlign=middle;whiteSpace=wrap;rounded=0;fontSize=9;" parent="1" vertex="1">
          <mxGeometry x="450" y="560" width="60" height="20" as="geometry" />
        </mxCell>
        <mxCell id="2jw7YrfokJ4P9lov2_Ub-112" value="Alt" style="shape=umlFrame;whiteSpace=wrap;html=1;pointerEvents=0;width=40;height=20;" parent="1" vertex="1">
          <mxGeometry x="450" y="480" width="290" height="160" as="geometry" />
        </mxCell>
        <mxCell id="2jw7YrfokJ4P9lov2_Ub-113" value="" style="edgeStyle=none;orthogonalLoop=1;jettySize=auto;html=1;rounded=0;endArrow=none;endFill=0;dashed=1;dashPattern=8 8;" parent="1" edge="1">
          <mxGeometry width="80" relative="1" as="geometry">
            <mxPoint x="450" y="560" as="sourcePoint" />
            <mxPoint x="740" y="560" as="targetPoint" />
            <Array as="points" />
          </mxGeometry>
        </mxCell>
        <mxCell id="2jw7YrfokJ4P9lov2_Ub-116" value="Respond with false" style="html=1;verticalAlign=bottom;endArrow=open;dashed=1;endSize=8;curved=0;rounded=0;" parent="1" edge="1">
          <mxGeometry relative="1" as="geometry">
            <mxPoint x="520" y="510" as="targetPoint" />
            <mxPoint x="720" y="510" as="sourcePoint" />
          </mxGeometry>
        </mxCell>
        <mxCell id="2jw7YrfokJ4P9lov2_Ub-120" value="Add user ID to&amp;nbsp;post likes data" style="html=1;verticalAlign=bottom;endArrow=block;curved=0;rounded=0;" parent="1" edge="1">
          <mxGeometry relative="1" as="geometry">
            <mxPoint x="520" y="540" as="sourcePoint" />
            <mxPoint x="720" y="540.29" as="targetPoint" />
            <mxPoint as="offset" />
          </mxGeometry>
        </mxCell>
        <mxCell id="2jw7YrfokJ4P9lov2_Ub-123" value="&lt;div&gt;Display liked button&lt;/div&gt;and count increased by 1" style="html=1;verticalAlign=bottom;endArrow=open;curved=0;rounded=0;dashed=1;endFill=0;" parent="1" edge="1">
          <mxGeometry x="0.0071" relative="1" as="geometry">
            <mxPoint x="300" y="860" as="sourcePoint" />
            <mxPoint x="140" y="860" as="targetPoint" />
            <mxPoint as="offset" />
          </mxGeometry>
        </mxCell>
        <mxCell id="2jw7YrfokJ4P9lov2_Ub-124" value="Check if post exists" style="html=1;verticalAlign=bottom;endArrow=block;curved=0;rounded=0;" parent="1" edge="1">
          <mxGeometry relative="1" as="geometry">
            <mxPoint x="520" y="360" as="sourcePoint" />
            <mxPoint x="720" y="360.28999999999996" as="targetPoint" />
            <mxPoint as="offset" />
          </mxGeometry>
        </mxCell>
        <mxCell id="2jw7YrfokJ4P9lov2_Ub-148" value="[post exists]" style="text;strokeColor=none;align=left;fillColor=none;html=1;verticalAlign=middle;whiteSpace=wrap;rounded=0;fontSize=9;" parent="1" vertex="1">
          <mxGeometry x="40" y="400" width="60" height="20" as="geometry" />
        </mxCell>
        <mxCell id="2jw7YrfokJ4P9lov2_Ub-149" value="&lt;font style=&quot;font-size: 9px;&quot;&gt;[else&lt;/font&gt;&lt;span style=&quot;background-color: initial;&quot;&gt;]&lt;/span&gt;" style="text;strokeColor=none;align=left;fillColor=none;html=1;verticalAlign=middle;whiteSpace=wrap;rounded=0;fontSize=9;" parent="1" vertex="1">
          <mxGeometry x="40" y="1210" width="60" height="20" as="geometry" />
        </mxCell>
        <mxCell id="2jw7YrfokJ4P9lov2_Ub-150" value="Alt" style="shape=umlFrame;whiteSpace=wrap;html=1;pointerEvents=0;width=40;height=20;" parent="1" vertex="1">
          <mxGeometry x="40" y="380" width="730" height="920" as="geometry" />
        </mxCell>
        <mxCell id="2jw7YrfokJ4P9lov2_Ub-151" value="" style="edgeStyle=none;orthogonalLoop=1;jettySize=auto;html=1;rounded=0;endArrow=none;endFill=0;dashed=1;dashPattern=8 8;" parent="1" edge="1">
          <mxGeometry width="80" relative="1" as="geometry">
            <mxPoint x="40" y="1210" as="sourcePoint" />
            <mxPoint x="770" y="1210" as="targetPoint" />
            <Array as="points" />
          </mxGeometry>
        </mxCell>
        <mxCell id="2jw7YrfokJ4P9lov2_Ub-152" value="Respond with true" style="html=1;verticalAlign=bottom;endArrow=open;dashed=1;endSize=8;curved=0;rounded=0;" parent="1" edge="1">
          <mxGeometry relative="1" as="geometry">
            <mxPoint x="520" y="410.00000000000006" as="targetPoint" />
            <mxPoint x="720" y="410.00000000000006" as="sourcePoint" />
          </mxGeometry>
        </mxCell>
        <mxCell id="2jw7YrfokJ4P9lov2_Ub-153" value="Respond with false" style="html=1;verticalAlign=bottom;endArrow=open;dashed=1;endSize=8;curved=0;rounded=0;" parent="1" edge="1">
          <mxGeometry relative="1" as="geometry">
            <mxPoint x="520" y="1240" as="targetPoint" />
            <mxPoint x="720" y="1240" as="sourcePoint" />
          </mxGeometry>
        </mxCell>
        <mxCell id="2jw7YrfokJ4P9lov2_Ub-158" value="Respond with error" style="html=1;verticalAlign=bottom;endArrow=open;dashed=1;endSize=8;curved=0;rounded=0;" parent="1" edge="1">
          <mxGeometry relative="1" as="geometry">
            <mxPoint x="310" y="1260" as="targetPoint" />
            <mxPoint x="510" y="1260" as="sourcePoint" />
          </mxGeometry>
        </mxCell>
        <mxCell id="2jw7YrfokJ4P9lov2_Ub-159" value="Display error message" style="html=1;verticalAlign=bottom;endArrow=open;curved=0;rounded=0;dashed=1;endFill=0;" parent="1" edge="1">
          <mxGeometry x="0.0057" relative="1" as="geometry">
            <mxPoint x="300" y="1280" as="sourcePoint" />
            <mxPoint x="140" y="1280" as="targetPoint" />
            <mxPoint as="offset" />
          </mxGeometry>
        </mxCell>
        <mxCell id="2jw7YrfokJ4P9lov2_Ub-163" value="Alt" style="shape=umlFrame;whiteSpace=wrap;html=1;pointerEvents=0;width=40;height=20;" parent="1" vertex="1">
          <mxGeometry x="50" y="660" width="710" height="530" as="geometry" />
        </mxCell>
        <mxCell id="2jw7YrfokJ4P9lov2_Ub-164" value="[succeed]" style="text;strokeColor=none;align=left;fillColor=none;html=1;verticalAlign=middle;whiteSpace=wrap;rounded=0;fontSize=9;" parent="1" vertex="1">
          <mxGeometry x="50" y="680" width="60" height="20" as="geometry" />
        </mxCell>
        <mxCell id="2jw7YrfokJ4P9lov2_Ub-165" value="&lt;font style=&quot;font-size: 9px;&quot;&gt;[else&lt;/font&gt;&lt;span style=&quot;background-color: initial;&quot;&gt;]&lt;/span&gt;" style="text;strokeColor=none;align=left;fillColor=none;html=1;verticalAlign=middle;whiteSpace=wrap;rounded=0;fontSize=9;" parent="1" vertex="1">
          <mxGeometry x="50" y="1100" width="60" height="20" as="geometry" />
        </mxCell>
        <mxCell id="2jw7YrfokJ4P9lov2_Ub-166" value="" style="edgeStyle=none;orthogonalLoop=1;jettySize=auto;html=1;rounded=0;endArrow=none;endFill=0;dashed=1;dashPattern=8 8;exitX=0;exitY=0;exitDx=0;exitDy=0;" parent="1" edge="1">
          <mxGeometry width="80" relative="1" as="geometry">
            <mxPoint x="50" y="1080" as="sourcePoint" />
            <mxPoint x="760" y="1080" as="targetPoint" />
            <Array as="points" />
          </mxGeometry>
        </mxCell>
        <mxCell id="2jw7YrfokJ4P9lov2_Ub-167" value="Respond with true" style="html=1;verticalAlign=bottom;endArrow=open;dashed=1;endSize=8;curved=0;rounded=0;" parent="1" edge="1">
          <mxGeometry relative="1" as="geometry">
            <mxPoint x="520" y="590" as="targetPoint" />
            <mxPoint x="720" y="590" as="sourcePoint" />
          </mxGeometry>
        </mxCell>
        <mxCell id="2jw7YrfokJ4P9lov2_Ub-168" value="Remove user ID from post likes data" style="html=1;verticalAlign=bottom;endArrow=block;curved=0;rounded=0;" parent="1" edge="1">
          <mxGeometry relative="1" as="geometry">
            <mxPoint x="520" y="620" as="sourcePoint" />
            <mxPoint x="720" y="620.29" as="targetPoint" />
            <mxPoint as="offset" />
          </mxGeometry>
        </mxCell>
        <mxCell id="2jw7YrfokJ4P9lov2_Ub-169" value="Respond with success" style="html=1;verticalAlign=bottom;endArrow=open;dashed=1;endSize=8;curved=0;rounded=0;" parent="1" edge="1">
          <mxGeometry relative="1" as="geometry">
            <mxPoint x="520" y="690" as="targetPoint" />
            <mxPoint x="720" y="690" as="sourcePoint" />
          </mxGeometry>
        </mxCell>
        <mxCell id="2jw7YrfokJ4P9lov2_Ub-171" value="Respond with failure" style="html=1;verticalAlign=bottom;endArrow=open;dashed=1;endSize=8;curved=0;rounded=0;" parent="1" edge="1">
          <mxGeometry relative="1" as="geometry">
            <mxPoint x="520" y="1130" as="targetPoint" />
            <mxPoint x="720" y="1130" as="sourcePoint" />
          </mxGeometry>
        </mxCell>
        <mxCell id="2jw7YrfokJ4P9lov2_Ub-172" value="Respond with error" style="html=1;verticalAlign=bottom;endArrow=open;dashed=1;endSize=8;curved=0;rounded=0;" parent="1" edge="1">
          <mxGeometry relative="1" as="geometry">
            <mxPoint x="310" y="1150" as="targetPoint" />
            <mxPoint x="510" y="1150" as="sourcePoint" />
          </mxGeometry>
        </mxCell>
        <mxCell id="2jw7YrfokJ4P9lov2_Ub-173" value="Display error message" style="html=1;verticalAlign=bottom;endArrow=open;curved=0;rounded=0;dashed=1;endFill=0;" parent="1" edge="1">
          <mxGeometry x="0.0057" relative="1" as="geometry">
            <mxPoint x="300" y="1170" as="sourcePoint" />
            <mxPoint x="140" y="1170" as="targetPoint" />
            <mxPoint as="offset" />
          </mxGeometry>
        </mxCell>
        <mxCell id="2jw7YrfokJ4P9lov2_Ub-174" value="[not liked]" style="text;strokeColor=none;align=left;fillColor=none;html=1;verticalAlign=middle;whiteSpace=wrap;rounded=0;fontSize=9;" parent="1" vertex="1">
          <mxGeometry x="70" y="830" width="60" height="20" as="geometry" />
        </mxCell>
        <mxCell id="2jw7YrfokJ4P9lov2_Ub-175" value="&lt;font style=&quot;font-size: 9px;&quot;&gt;[else&lt;/font&gt;&lt;span style=&quot;background-color: initial;&quot;&gt;]&lt;/span&gt;" style="text;strokeColor=none;align=left;fillColor=none;html=1;verticalAlign=middle;whiteSpace=wrap;rounded=0;fontSize=9;" parent="1" vertex="1">
          <mxGeometry x="70" y="880" width="60" height="20" as="geometry" />
        </mxCell>
        <mxCell id="2jw7YrfokJ4P9lov2_Ub-176" value="Alt" style="shape=umlFrame;whiteSpace=wrap;html=1;pointerEvents=0;width=40;height=20;" parent="1" vertex="1">
          <mxGeometry x="70" y="810" width="250" height="140" as="geometry" />
        </mxCell>
        <mxCell id="2jw7YrfokJ4P9lov2_Ub-177" value="" style="edgeStyle=none;orthogonalLoop=1;jettySize=auto;html=1;rounded=0;endArrow=none;endFill=0;dashed=1;dashPattern=8 8;" parent="1" edge="1">
          <mxGeometry width="80" relative="1" as="geometry">
            <mxPoint x="70" y="880" as="sourcePoint" />
            <mxPoint x="320" y="880" as="targetPoint" />
            <Array as="points" />
          </mxGeometry>
        </mxCell>
        <mxCell id="2jw7YrfokJ4P9lov2_Ub-179" value="&lt;div&gt;Display unliked button&lt;/div&gt;and count decreased by 1" style="html=1;verticalAlign=bottom;endArrow=open;curved=0;rounded=0;dashed=1;endFill=0;" parent="1" edge="1">
          <mxGeometry x="0.0071" relative="1" as="geometry">
            <mxPoint x="300" y="930" as="sourcePoint" />
            <mxPoint x="140" y="930" as="targetPoint" />
            <mxPoint as="offset" />
          </mxGeometry>
        </mxCell>
        <mxCell id="2jw7YrfokJ4P9lov2_Ub-180" value="Query for likes count" style="html=1;verticalAlign=bottom;endArrow=block;curved=0;rounded=0;" parent="1" edge="1">
          <mxGeometry relative="1" as="geometry">
            <mxPoint x="520" y="720" as="sourcePoint" />
            <mxPoint x="720" y="720.29" as="targetPoint" />
            <mxPoint as="offset" />
          </mxGeometry>
        </mxCell>
        <mxCell id="2jw7YrfokJ4P9lov2_Ub-181" value="Alt" style="shape=umlFrame;whiteSpace=wrap;html=1;pointerEvents=0;width=40;height=20;" parent="1" vertex="1">
          <mxGeometry x="60" y="740" width="690" height="320" as="geometry" />
        </mxCell>
        <mxCell id="2jw7YrfokJ4P9lov2_Ub-182" value="[succeed]" style="text;strokeColor=none;align=left;fillColor=none;html=1;verticalAlign=middle;whiteSpace=wrap;rounded=0;fontSize=9;" parent="1" vertex="1">
          <mxGeometry x="60" y="760" width="60" height="20" as="geometry" />
        </mxCell>
        <mxCell id="2jw7YrfokJ4P9lov2_Ub-183" value="&lt;font style=&quot;font-size: 9px;&quot;&gt;[else&lt;/font&gt;&lt;span style=&quot;background-color: initial;&quot;&gt;]&lt;/span&gt;" style="text;strokeColor=none;align=left;fillColor=none;html=1;verticalAlign=middle;whiteSpace=wrap;rounded=0;fontSize=9;" parent="1" vertex="1">
          <mxGeometry x="60" y="969.8600000000001" width="60" height="20" as="geometry" />
        </mxCell>
        <mxCell id="2jw7YrfokJ4P9lov2_Ub-184" value="" style="edgeStyle=none;orthogonalLoop=1;jettySize=auto;html=1;rounded=0;endArrow=none;endFill=0;dashed=1;dashPattern=8 8;" parent="1" edge="1">
          <mxGeometry width="80" relative="1" as="geometry">
            <mxPoint x="60" y="970" as="sourcePoint" />
            <mxPoint x="750" y="969.8600000000001" as="targetPoint" />
            <Array as="points" />
          </mxGeometry>
        </mxCell>
        <mxCell id="2jw7YrfokJ4P9lov2_Ub-185" value="Respond with likes count" style="html=1;verticalAlign=bottom;endArrow=open;dashed=1;endSize=8;curved=0;rounded=0;" parent="1" edge="1">
          <mxGeometry relative="1" as="geometry">
            <mxPoint x="520" y="770" as="targetPoint" />
            <mxPoint x="720" y="770" as="sourcePoint" />
          </mxGeometry>
        </mxCell>
        <mxCell id="2jw7YrfokJ4P9lov2_Ub-186" value="Respond with failure" style="html=1;verticalAlign=bottom;endArrow=open;dashed=1;endSize=8;curved=0;rounded=0;" parent="1" edge="1">
          <mxGeometry relative="1" as="geometry">
            <mxPoint x="520" y="999.8600000000001" as="targetPoint" />
            <mxPoint x="720" y="999.8600000000001" as="sourcePoint" />
          </mxGeometry>
        </mxCell>
        <mxCell id="2jw7YrfokJ4P9lov2_Ub-187" value="Respond with error" style="html=1;verticalAlign=bottom;endArrow=open;dashed=1;endSize=8;curved=0;rounded=0;" parent="1" edge="1">
          <mxGeometry relative="1" as="geometry">
            <mxPoint x="310" y="1020" as="targetPoint" />
            <mxPoint x="510" y="1020" as="sourcePoint" />
          </mxGeometry>
        </mxCell>
        <mxCell id="2jw7YrfokJ4P9lov2_Ub-188" value="Display error message" style="html=1;verticalAlign=bottom;endArrow=open;curved=0;rounded=0;dashed=1;endFill=0;" parent="1" edge="1">
          <mxGeometry x="0.0057" relative="1" as="geometry">
            <mxPoint x="300" y="1040" as="sourcePoint" />
            <mxPoint x="140" y="1040" as="targetPoint" />
            <mxPoint as="offset" />
          </mxGeometry>
        </mxCell>
        <mxCell id="2jw7YrfokJ4P9lov2_Ub-189" value="Respond with likes count" style="html=1;verticalAlign=bottom;endArrow=open;dashed=1;endSize=8;curved=0;rounded=0;" parent="1" edge="1">
          <mxGeometry relative="1" as="geometry">
            <mxPoint x="310" y="790" as="targetPoint" />
            <mxPoint x="510" y="790" as="sourcePoint" />
          </mxGeometry>
        </mxCell>
        <mxCell id="2jw7YrfokJ4P9lov2_Ub-39" value="" style="html=1;points=[[0,0,0,0,5],[0,1,0,0,-5],[1,0,0,0,5],[1,1,0,0,-5]];perimeter=orthogonalPerimeter;outlineConnect=0;targetShapes=umlLifeline;portConstraint=eastwest;newEdgeStyle={&quot;curved&quot;:0,&quot;rounded&quot;:0};" parent="1" vertex="1">
          <mxGeometry x="130" y="150" width="10" height="10" as="geometry" />
        </mxCell>
        <mxCell id="7aSp7AvTGqziAClSht7B-2" value="" style="html=1;points=[[0,0,0,0,5],[0,1,0,0,-5],[1,0,0,0,5],[1,1,0,0,-5]];perimeter=orthogonalPerimeter;outlineConnect=0;targetShapes=umlLifeline;portConstraint=eastwest;newEdgeStyle={&quot;curved&quot;:0,&quot;rounded&quot;:0};" parent="1" vertex="1">
          <mxGeometry x="300" y="150" width="10" height="10" as="geometry" />
        </mxCell>
        <mxCell id="7aSp7AvTGqziAClSht7B-3" value="" style="html=1;points=[[0,0,0,0,5],[0,1,0,0,-5],[1,0,0,0,5],[1,1,0,0,-5]];perimeter=orthogonalPerimeter;outlineConnect=0;targetShapes=umlLifeline;portConstraint=eastwest;newEdgeStyle={&quot;curved&quot;:0,&quot;rounded&quot;:0};" parent="1" vertex="1">
          <mxGeometry x="300" y="170" width="10" height="20" as="geometry" />
        </mxCell>
        <mxCell id="7aSp7AvTGqziAClSht7B-4" value="" style="html=1;points=[[0,0,0,0,5],[0,1,0,0,-5],[1,0,0,0,5],[1,1,0,0,-5]];perimeter=orthogonalPerimeter;outlineConnect=0;targetShapes=umlLifeline;portConstraint=eastwest;newEdgeStyle={&quot;curved&quot;:0,&quot;rounded&quot;:0};" parent="1" vertex="1">
          <mxGeometry x="300" y="255" width="10" height="10" as="geometry" />
        </mxCell>
        <mxCell id="7aSp7AvTGqziAClSht7B-9" value="" style="html=1;points=[[0,0,0,0,5],[0,1,0,0,-5],[1,0,0,0,5],[1,1,0,0,-5]];perimeter=orthogonalPerimeter;outlineConnect=0;targetShapes=umlLifeline;portConstraint=eastwest;newEdgeStyle={&quot;curved&quot;:0,&quot;rounded&quot;:0};" parent="1" vertex="1">
          <mxGeometry x="510" y="325" width="10" height="10" as="geometry" />
        </mxCell>
        <mxCell id="7aSp7AvTGqziAClSht7B-10" value="" style="html=1;points=[[0,0,0,0,5],[0,1,0,0,-5],[1,0,0,0,5],[1,1,0,0,-5]];perimeter=orthogonalPerimeter;outlineConnect=0;targetShapes=umlLifeline;portConstraint=eastwest;newEdgeStyle={&quot;curved&quot;:0,&quot;rounded&quot;:0};" parent="1" vertex="1">
          <mxGeometry x="510" y="275" width="10" height="10" as="geometry" />
        </mxCell>
        <mxCell id="7aSp7AvTGqziAClSht7B-11" value="" style="html=1;points=[[0,0,0,0,5],[0,1,0,0,-5],[1,0,0,0,5],[1,1,0,0,-5]];perimeter=orthogonalPerimeter;outlineConnect=0;targetShapes=umlLifeline;portConstraint=eastwest;newEdgeStyle={&quot;curved&quot;:0,&quot;rounded&quot;:0};" parent="1" vertex="1">
          <mxGeometry x="510" y="255" width="10" height="10" as="geometry" />
        </mxCell>
        <mxCell id="7aSp7AvTGqziAClSht7B-12" value="" style="html=1;points=[[0,0,0,0,5],[0,1,0,0,-5],[1,0,0,0,5],[1,1,0,0,-5]];perimeter=orthogonalPerimeter;outlineConnect=0;targetShapes=umlLifeline;portConstraint=eastwest;newEdgeStyle={&quot;curved&quot;:0,&quot;rounded&quot;:0};" parent="1" vertex="1">
          <mxGeometry x="720" y="275" width="10" height="10" as="geometry" />
        </mxCell>
        <mxCell id="7aSp7AvTGqziAClSht7B-13" value="" style="html=1;points=[[0,0,0,0,5],[0,1,0,0,-5],[1,0,0,0,5],[1,1,0,0,-5]];perimeter=orthogonalPerimeter;outlineConnect=0;targetShapes=umlLifeline;portConstraint=eastwest;newEdgeStyle={&quot;curved&quot;:0,&quot;rounded&quot;:0};" parent="1" vertex="1">
          <mxGeometry x="720" y="325" width="10" height="10" as="geometry" />
        </mxCell>
        <mxCell id="7aSp7AvTGqziAClSht7B-14" value="" style="html=1;points=[[0,0,0,0,5],[0,1,0,0,-5],[1,0,0,0,5],[1,1,0,0,-5]];perimeter=orthogonalPerimeter;outlineConnect=0;targetShapes=umlLifeline;portConstraint=eastwest;newEdgeStyle={&quot;curved&quot;:0,&quot;rounded&quot;:0};" parent="1" vertex="1">
          <mxGeometry x="720" y="360" width="10" height="10" as="geometry" />
        </mxCell>
        <mxCell id="7aSp7AvTGqziAClSht7B-15" value="" style="html=1;points=[[0,0,0,0,5],[0,1,0,0,-5],[1,0,0,0,5],[1,1,0,0,-5]];perimeter=orthogonalPerimeter;outlineConnect=0;targetShapes=umlLifeline;portConstraint=eastwest;newEdgeStyle={&quot;curved&quot;:0,&quot;rounded&quot;:0};" parent="1" vertex="1">
          <mxGeometry x="720" y="410" width="10" height="10" as="geometry" />
        </mxCell>
        <mxCell id="7aSp7AvTGqziAClSht7B-17" value="" style="html=1;points=[[0,0,0,0,5],[0,1,0,0,-5],[1,0,0,0,5],[1,1,0,0,-5]];perimeter=orthogonalPerimeter;outlineConnect=0;targetShapes=umlLifeline;portConstraint=eastwest;newEdgeStyle={&quot;curved&quot;:0,&quot;rounded&quot;:0};" parent="1" vertex="1">
          <mxGeometry x="720" y="460" width="10" height="10" as="geometry" />
        </mxCell>
        <mxCell id="7aSp7AvTGqziAClSht7B-18" value="" style="html=1;points=[[0,0,0,0,5],[0,1,0,0,-5],[1,0,0,0,5],[1,1,0,0,-5]];perimeter=orthogonalPerimeter;outlineConnect=0;targetShapes=umlLifeline;portConstraint=eastwest;newEdgeStyle={&quot;curved&quot;:0,&quot;rounded&quot;:0};" parent="1" vertex="1">
          <mxGeometry x="510" y="460" width="10" height="10" as="geometry" />
        </mxCell>
        <mxCell id="7aSp7AvTGqziAClSht7B-19" value="" style="html=1;points=[[0,0,0,0,5],[0,1,0,0,-5],[1,0,0,0,5],[1,1,0,0,-5]];perimeter=orthogonalPerimeter;outlineConnect=0;targetShapes=umlLifeline;portConstraint=eastwest;newEdgeStyle={&quot;curved&quot;:0,&quot;rounded&quot;:0};" parent="1" vertex="1">
          <mxGeometry x="510" y="410" width="10" height="10" as="geometry" />
        </mxCell>
        <mxCell id="7aSp7AvTGqziAClSht7B-20" value="" style="html=1;points=[[0,0,0,0,5],[0,1,0,0,-5],[1,0,0,0,5],[1,1,0,0,-5]];perimeter=orthogonalPerimeter;outlineConnect=0;targetShapes=umlLifeline;portConstraint=eastwest;newEdgeStyle={&quot;curved&quot;:0,&quot;rounded&quot;:0};" parent="1" vertex="1">
          <mxGeometry x="510" y="510" width="10" height="10" as="geometry" />
        </mxCell>
        <mxCell id="7aSp7AvTGqziAClSht7B-21" value="" style="html=1;points=[[0,0,0,0,5],[0,1,0,0,-5],[1,0,0,0,5],[1,1,0,0,-5]];perimeter=orthogonalPerimeter;outlineConnect=0;targetShapes=umlLifeline;portConstraint=eastwest;newEdgeStyle={&quot;curved&quot;:0,&quot;rounded&quot;:0};" parent="1" vertex="1">
          <mxGeometry x="510" y="540" width="10" height="10" as="geometry" />
        </mxCell>
        <mxCell id="7aSp7AvTGqziAClSht7B-22" value="" style="html=1;points=[[0,0,0,0,5],[0,1,0,0,-5],[1,0,0,0,5],[1,1,0,0,-5]];perimeter=orthogonalPerimeter;outlineConnect=0;targetShapes=umlLifeline;portConstraint=eastwest;newEdgeStyle={&quot;curved&quot;:0,&quot;rounded&quot;:0};" parent="1" vertex="1">
          <mxGeometry x="720" y="510" width="10" height="10" as="geometry" />
        </mxCell>
        <mxCell id="7aSp7AvTGqziAClSht7B-23" value="" style="html=1;points=[[0,0,0,0,5],[0,1,0,0,-5],[1,0,0,0,5],[1,1,0,0,-5]];perimeter=orthogonalPerimeter;outlineConnect=0;targetShapes=umlLifeline;portConstraint=eastwest;newEdgeStyle={&quot;curved&quot;:0,&quot;rounded&quot;:0};" parent="1" vertex="1">
          <mxGeometry x="720" y="540" width="10" height="10" as="geometry" />
        </mxCell>
        <mxCell id="7aSp7AvTGqziAClSht7B-24" value="" style="html=1;points=[[0,0,0,0,5],[0,1,0,0,-5],[1,0,0,0,5],[1,1,0,0,-5]];perimeter=orthogonalPerimeter;outlineConnect=0;targetShapes=umlLifeline;portConstraint=eastwest;newEdgeStyle={&quot;curved&quot;:0,&quot;rounded&quot;:0};" parent="1" vertex="1">
          <mxGeometry x="720" y="590" width="10" height="10" as="geometry" />
        </mxCell>
        <mxCell id="7aSp7AvTGqziAClSht7B-25" value="" style="html=1;points=[[0,0,0,0,5],[0,1,0,0,-5],[1,0,0,0,5],[1,1,0,0,-5]];perimeter=orthogonalPerimeter;outlineConnect=0;targetShapes=umlLifeline;portConstraint=eastwest;newEdgeStyle={&quot;curved&quot;:0,&quot;rounded&quot;:0};" parent="1" vertex="1">
          <mxGeometry x="720" y="620" width="10" height="10" as="geometry" />
        </mxCell>
        <mxCell id="7aSp7AvTGqziAClSht7B-26" value="" style="html=1;points=[[0,0,0,0,5],[0,1,0,0,-5],[1,0,0,0,5],[1,1,0,0,-5]];perimeter=orthogonalPerimeter;outlineConnect=0;targetShapes=umlLifeline;portConstraint=eastwest;newEdgeStyle={&quot;curved&quot;:0,&quot;rounded&quot;:0};" parent="1" vertex="1">
          <mxGeometry x="510" y="620" width="10" height="10" as="geometry" />
        </mxCell>
        <mxCell id="7aSp7AvTGqziAClSht7B-27" value="" style="html=1;points=[[0,0,0,0,5],[0,1,0,0,-5],[1,0,0,0,5],[1,1,0,0,-5]];perimeter=orthogonalPerimeter;outlineConnect=0;targetShapes=umlLifeline;portConstraint=eastwest;newEdgeStyle={&quot;curved&quot;:0,&quot;rounded&quot;:0};" parent="1" vertex="1">
          <mxGeometry x="510" y="590" width="10" height="10" as="geometry" />
        </mxCell>
        <mxCell id="7aSp7AvTGqziAClSht7B-28" value="" style="html=1;points=[[0,0,0,0,5],[0,1,0,0,-5],[1,0,0,0,5],[1,1,0,0,-5]];perimeter=orthogonalPerimeter;outlineConnect=0;targetShapes=umlLifeline;portConstraint=eastwest;newEdgeStyle={&quot;curved&quot;:0,&quot;rounded&quot;:0};" parent="1" vertex="1">
          <mxGeometry x="510" y="690" width="10" height="10" as="geometry" />
        </mxCell>
        <mxCell id="7aSp7AvTGqziAClSht7B-29" value="" style="html=1;points=[[0,0,0,0,5],[0,1,0,0,-5],[1,0,0,0,5],[1,1,0,0,-5]];perimeter=orthogonalPerimeter;outlineConnect=0;targetShapes=umlLifeline;portConstraint=eastwest;newEdgeStyle={&quot;curved&quot;:0,&quot;rounded&quot;:0};" parent="1" vertex="1">
          <mxGeometry x="510" y="720" width="10" height="10" as="geometry" />
        </mxCell>
        <mxCell id="7aSp7AvTGqziAClSht7B-30" value="" style="html=1;points=[[0,0,0,0,5],[0,1,0,0,-5],[1,0,0,0,5],[1,1,0,0,-5]];perimeter=orthogonalPerimeter;outlineConnect=0;targetShapes=umlLifeline;portConstraint=eastwest;newEdgeStyle={&quot;curved&quot;:0,&quot;rounded&quot;:0};" parent="1" vertex="1">
          <mxGeometry x="720" y="690" width="10" height="10" as="geometry" />
        </mxCell>
        <mxCell id="7aSp7AvTGqziAClSht7B-31" value="" style="html=1;points=[[0,0,0,0,5],[0,1,0,0,-5],[1,0,0,0,5],[1,1,0,0,-5]];perimeter=orthogonalPerimeter;outlineConnect=0;targetShapes=umlLifeline;portConstraint=eastwest;newEdgeStyle={&quot;curved&quot;:0,&quot;rounded&quot;:0};" parent="1" vertex="1">
          <mxGeometry x="720" y="720" width="10" height="10" as="geometry" />
        </mxCell>
        <mxCell id="7aSp7AvTGqziAClSht7B-32" value="" style="html=1;points=[[0,0,0,0,5],[0,1,0,0,-5],[1,0,0,0,5],[1,1,0,0,-5]];perimeter=orthogonalPerimeter;outlineConnect=0;targetShapes=umlLifeline;portConstraint=eastwest;newEdgeStyle={&quot;curved&quot;:0,&quot;rounded&quot;:0};" parent="1" vertex="1">
          <mxGeometry x="720" y="770" width="10" height="10" as="geometry" />
        </mxCell>
        <mxCell id="7aSp7AvTGqziAClSht7B-33" value="" style="html=1;points=[[0,0,0,0,5],[0,1,0,0,-5],[1,0,0,0,5],[1,1,0,0,-5]];perimeter=orthogonalPerimeter;outlineConnect=0;targetShapes=umlLifeline;portConstraint=eastwest;newEdgeStyle={&quot;curved&quot;:0,&quot;rounded&quot;:0};" parent="1" vertex="1">
          <mxGeometry x="510" y="770" width="10" height="10" as="geometry" />
        </mxCell>
        <mxCell id="7aSp7AvTGqziAClSht7B-34" value="" style="html=1;points=[[0,0,0,0,5],[0,1,0,0,-5],[1,0,0,0,5],[1,1,0,0,-5]];perimeter=orthogonalPerimeter;outlineConnect=0;targetShapes=umlLifeline;portConstraint=eastwest;newEdgeStyle={&quot;curved&quot;:0,&quot;rounded&quot;:0};" parent="1" vertex="1">
          <mxGeometry x="510" y="790" width="10" height="10" as="geometry" />
        </mxCell>
        <mxCell id="7aSp7AvTGqziAClSht7B-35" value="" style="html=1;points=[[0,0,0,0,5],[0,1,0,0,-5],[1,0,0,0,5],[1,1,0,0,-5]];perimeter=orthogonalPerimeter;outlineConnect=0;targetShapes=umlLifeline;portConstraint=eastwest;newEdgeStyle={&quot;curved&quot;:0,&quot;rounded&quot;:0};" parent="1" vertex="1">
          <mxGeometry x="300" y="790" width="10" height="10" as="geometry" />
        </mxCell>
        <mxCell id="7aSp7AvTGqziAClSht7B-36" value="" style="html=1;points=[[0,0,0,0,5],[0,1,0,0,-5],[1,0,0,0,5],[1,1,0,0,-5]];perimeter=orthogonalPerimeter;outlineConnect=0;targetShapes=umlLifeline;portConstraint=eastwest;newEdgeStyle={&quot;curved&quot;:0,&quot;rounded&quot;:0};" parent="1" vertex="1">
          <mxGeometry x="510" y="1000" width="10" height="10" as="geometry" />
        </mxCell>
        <mxCell id="7aSp7AvTGqziAClSht7B-37" value="" style="html=1;points=[[0,0,0,0,5],[0,1,0,0,-5],[1,0,0,0,5],[1,1,0,0,-5]];perimeter=orthogonalPerimeter;outlineConnect=0;targetShapes=umlLifeline;portConstraint=eastwest;newEdgeStyle={&quot;curved&quot;:0,&quot;rounded&quot;:0};" parent="1" vertex="1">
          <mxGeometry x="720" y="1000" width="10" height="10" as="geometry" />
        </mxCell>
        <mxCell id="7aSp7AvTGqziAClSht7B-38" value="" style="html=1;points=[[0,0,0,0,5],[0,1,0,0,-5],[1,0,0,0,5],[1,1,0,0,-5]];perimeter=orthogonalPerimeter;outlineConnect=0;targetShapes=umlLifeline;portConstraint=eastwest;newEdgeStyle={&quot;curved&quot;:0,&quot;rounded&quot;:0};" parent="1" vertex="1">
          <mxGeometry x="510" y="1020" width="10" height="10" as="geometry" />
        </mxCell>
        <mxCell id="7aSp7AvTGqziAClSht7B-39" value="" style="html=1;points=[[0,0,0,0,5],[0,1,0,0,-5],[1,0,0,0,5],[1,1,0,0,-5]];perimeter=orthogonalPerimeter;outlineConnect=0;targetShapes=umlLifeline;portConstraint=eastwest;newEdgeStyle={&quot;curved&quot;:0,&quot;rounded&quot;:0};" parent="1" vertex="1">
          <mxGeometry x="300" y="1020" width="10" height="10" as="geometry" />
        </mxCell>
        <mxCell id="7aSp7AvTGqziAClSht7B-41" value="" style="html=1;points=[[0,0,0,0,5],[0,1,0,0,-5],[1,0,0,0,5],[1,1,0,0,-5]];perimeter=orthogonalPerimeter;outlineConnect=0;targetShapes=umlLifeline;portConstraint=eastwest;newEdgeStyle={&quot;curved&quot;:0,&quot;rounded&quot;:0};" parent="1" vertex="1">
          <mxGeometry x="300" y="1040" width="10" height="10" as="geometry" />
        </mxCell>
        <mxCell id="7aSp7AvTGqziAClSht7B-42" value="" style="html=1;points=[[0,0,0,0,5],[0,1,0,0,-5],[1,0,0,0,5],[1,1,0,0,-5]];perimeter=orthogonalPerimeter;outlineConnect=0;targetShapes=umlLifeline;portConstraint=eastwest;newEdgeStyle={&quot;curved&quot;:0,&quot;rounded&quot;:0};" parent="1" vertex="1">
          <mxGeometry x="300" y="930" width="10" height="10" as="geometry" />
        </mxCell>
        <mxCell id="7aSp7AvTGqziAClSht7B-43" value="" style="html=1;points=[[0,0,0,0,5],[0,1,0,0,-5],[1,0,0,0,5],[1,1,0,0,-5]];perimeter=orthogonalPerimeter;outlineConnect=0;targetShapes=umlLifeline;portConstraint=eastwest;newEdgeStyle={&quot;curved&quot;:0,&quot;rounded&quot;:0};" parent="1" vertex="1">
          <mxGeometry x="300" y="860" width="10" height="10" as="geometry" />
        </mxCell>
        <mxCell id="7aSp7AvTGqziAClSht7B-44" value="" style="html=1;points=[[0,0,0,0,5],[0,1,0,0,-5],[1,0,0,0,5],[1,1,0,0,-5]];perimeter=orthogonalPerimeter;outlineConnect=0;targetShapes=umlLifeline;portConstraint=eastwest;newEdgeStyle={&quot;curved&quot;:0,&quot;rounded&quot;:0};" parent="1" vertex="1">
          <mxGeometry x="130" y="860" width="10" height="10" as="geometry" />
        </mxCell>
        <mxCell id="7aSp7AvTGqziAClSht7B-45" value="" style="html=1;points=[[0,0,0,0,5],[0,1,0,0,-5],[1,0,0,0,5],[1,1,0,0,-5]];perimeter=orthogonalPerimeter;outlineConnect=0;targetShapes=umlLifeline;portConstraint=eastwest;newEdgeStyle={&quot;curved&quot;:0,&quot;rounded&quot;:0};" parent="1" vertex="1">
          <mxGeometry x="130" y="930" width="10" height="10" as="geometry" />
        </mxCell>
        <mxCell id="7aSp7AvTGqziAClSht7B-46" value="" style="html=1;points=[[0,0,0,0,5],[0,1,0,0,-5],[1,0,0,0,5],[1,1,0,0,-5]];perimeter=orthogonalPerimeter;outlineConnect=0;targetShapes=umlLifeline;portConstraint=eastwest;newEdgeStyle={&quot;curved&quot;:0,&quot;rounded&quot;:0};" parent="1" vertex="1">
          <mxGeometry x="130" y="1040" width="10" height="10" as="geometry" />
        </mxCell>
        <mxCell id="7aSp7AvTGqziAClSht7B-47" value="" style="html=1;points=[[0,0,0,0,5],[0,1,0,0,-5],[1,0,0,0,5],[1,1,0,0,-5]];perimeter=orthogonalPerimeter;outlineConnect=0;targetShapes=umlLifeline;portConstraint=eastwest;newEdgeStyle={&quot;curved&quot;:0,&quot;rounded&quot;:0};" parent="1" vertex="1">
          <mxGeometry x="130" y="1170" width="10" height="10" as="geometry" />
        </mxCell>
        <mxCell id="7aSp7AvTGqziAClSht7B-48" value="" style="html=1;points=[[0,0,0,0,5],[0,1,0,0,-5],[1,0,0,0,5],[1,1,0,0,-5]];perimeter=orthogonalPerimeter;outlineConnect=0;targetShapes=umlLifeline;portConstraint=eastwest;newEdgeStyle={&quot;curved&quot;:0,&quot;rounded&quot;:0};" parent="1" vertex="1">
          <mxGeometry x="300" y="1170" width="10" height="10" as="geometry" />
        </mxCell>
        <mxCell id="7aSp7AvTGqziAClSht7B-49" value="" style="html=1;points=[[0,0,0,0,5],[0,1,0,0,-5],[1,0,0,0,5],[1,1,0,0,-5]];perimeter=orthogonalPerimeter;outlineConnect=0;targetShapes=umlLifeline;portConstraint=eastwest;newEdgeStyle={&quot;curved&quot;:0,&quot;rounded&quot;:0};" parent="1" vertex="1">
          <mxGeometry x="300" y="1150" width="10" height="10" as="geometry" />
        </mxCell>
        <mxCell id="7aSp7AvTGqziAClSht7B-50" value="" style="html=1;points=[[0,0,0,0,5],[0,1,0,0,-5],[1,0,0,0,5],[1,1,0,0,-5]];perimeter=orthogonalPerimeter;outlineConnect=0;targetShapes=umlLifeline;portConstraint=eastwest;newEdgeStyle={&quot;curved&quot;:0,&quot;rounded&quot;:0};" parent="1" vertex="1">
          <mxGeometry x="510" y="1150" width="10" height="10" as="geometry" />
        </mxCell>
        <mxCell id="7aSp7AvTGqziAClSht7B-51" value="" style="html=1;points=[[0,0,0,0,5],[0,1,0,0,-5],[1,0,0,0,5],[1,1,0,0,-5]];perimeter=orthogonalPerimeter;outlineConnect=0;targetShapes=umlLifeline;portConstraint=eastwest;newEdgeStyle={&quot;curved&quot;:0,&quot;rounded&quot;:0};" parent="1" vertex="1">
          <mxGeometry x="510" y="1130" width="10" height="10" as="geometry" />
        </mxCell>
        <mxCell id="7aSp7AvTGqziAClSht7B-52" value="" style="html=1;points=[[0,0,0,0,5],[0,1,0,0,-5],[1,0,0,0,5],[1,1,0,0,-5]];perimeter=orthogonalPerimeter;outlineConnect=0;targetShapes=umlLifeline;portConstraint=eastwest;newEdgeStyle={&quot;curved&quot;:0,&quot;rounded&quot;:0};" parent="1" vertex="1">
          <mxGeometry x="510" y="1240" width="10" height="10" as="geometry" />
        </mxCell>
        <mxCell id="7aSp7AvTGqziAClSht7B-54" value="" style="html=1;points=[[0,0,0,0,5],[0,1,0,0,-5],[1,0,0,0,5],[1,1,0,0,-5]];perimeter=orthogonalPerimeter;outlineConnect=0;targetShapes=umlLifeline;portConstraint=eastwest;newEdgeStyle={&quot;curved&quot;:0,&quot;rounded&quot;:0};" parent="1" vertex="1">
          <mxGeometry x="510" y="1260" width="10" height="10" as="geometry" />
        </mxCell>
        <mxCell id="7aSp7AvTGqziAClSht7B-55" value="" style="html=1;points=[[0,0,0,0,5],[0,1,0,0,-5],[1,0,0,0,5],[1,1,0,0,-5]];perimeter=orthogonalPerimeter;outlineConnect=0;targetShapes=umlLifeline;portConstraint=eastwest;newEdgeStyle={&quot;curved&quot;:0,&quot;rounded&quot;:0};" parent="1" vertex="1">
          <mxGeometry x="520" y="1270" width="10" height="10" as="geometry" />
        </mxCell>
        <mxCell id="7aSp7AvTGqziAClSht7B-56" value="" style="html=1;points=[[0,0,0,0,5],[0,1,0,0,-5],[1,0,0,0,5],[1,1,0,0,-5]];perimeter=orthogonalPerimeter;outlineConnect=0;targetShapes=umlLifeline;portConstraint=eastwest;newEdgeStyle={&quot;curved&quot;:0,&quot;rounded&quot;:0};" parent="1" vertex="1">
          <mxGeometry x="300" y="1260" width="10" height="10" as="geometry" />
        </mxCell>
        <mxCell id="7aSp7AvTGqziAClSht7B-57" value="" style="html=1;points=[[0,0,0,0,5],[0,1,0,0,-5],[1,0,0,0,5],[1,1,0,0,-5]];perimeter=orthogonalPerimeter;outlineConnect=0;targetShapes=umlLifeline;portConstraint=eastwest;newEdgeStyle={&quot;curved&quot;:0,&quot;rounded&quot;:0};" parent="1" vertex="1">
          <mxGeometry x="300" y="1280" width="10" height="10" as="geometry" />
        </mxCell>
        <mxCell id="7aSp7AvTGqziAClSht7B-58" value="" style="html=1;points=[[0,0,0,0,5],[0,1,0,0,-5],[1,0,0,0,5],[1,1,0,0,-5]];perimeter=orthogonalPerimeter;outlineConnect=0;targetShapes=umlLifeline;portConstraint=eastwest;newEdgeStyle={&quot;curved&quot;:0,&quot;rounded&quot;:0};" parent="1" vertex="1">
          <mxGeometry x="130" y="1280" width="10" height="10" as="geometry" />
        </mxCell>
        <mxCell id="7aSp7AvTGqziAClSht7B-59" value="" style="html=1;points=[[0,0,0,0,5],[0,1,0,0,-5],[1,0,0,0,5],[1,1,0,0,-5]];perimeter=orthogonalPerimeter;outlineConnect=0;targetShapes=umlLifeline;portConstraint=eastwest;newEdgeStyle={&quot;curved&quot;:0,&quot;rounded&quot;:0};" parent="1" vertex="1">
          <mxGeometry x="130" y="1390" width="10" height="10" as="geometry" />
        </mxCell>
        <mxCell id="7aSp7AvTGqziAClSht7B-60" value="" style="html=1;points=[[0,0,0,0,5],[0,1,0,0,-5],[1,0,0,0,5],[1,1,0,0,-5]];perimeter=orthogonalPerimeter;outlineConnect=0;targetShapes=umlLifeline;portConstraint=eastwest;newEdgeStyle={&quot;curved&quot;:0,&quot;rounded&quot;:0};" parent="1" vertex="1">
          <mxGeometry x="130" y="1440" width="10" height="10" as="geometry" />
        </mxCell>
        <mxCell id="7aSp7AvTGqziAClSht7B-61" value="" style="html=1;points=[[0,0,0,0,5],[0,1,0,0,-5],[1,0,0,0,5],[1,1,0,0,-5]];perimeter=orthogonalPerimeter;outlineConnect=0;targetShapes=umlLifeline;portConstraint=eastwest;newEdgeStyle={&quot;curved&quot;:0,&quot;rounded&quot;:0};" parent="1" vertex="1">
          <mxGeometry x="300" y="1370" width="10" height="10" as="geometry" />
        </mxCell>
        <mxCell id="7aSp7AvTGqziAClSht7B-62" value="" style="html=1;points=[[0,0,0,0,5],[0,1,0,0,-5],[1,0,0,0,5],[1,1,0,0,-5]];perimeter=orthogonalPerimeter;outlineConnect=0;targetShapes=umlLifeline;portConstraint=eastwest;newEdgeStyle={&quot;curved&quot;:0,&quot;rounded&quot;:0};" parent="1" vertex="1">
          <mxGeometry x="300" y="1390" width="10" height="10" as="geometry" />
        </mxCell>
        <mxCell id="7aSp7AvTGqziAClSht7B-63" value="" style="html=1;points=[[0,0,0,0,5],[0,1,0,0,-5],[1,0,0,0,5],[1,1,0,0,-5]];perimeter=orthogonalPerimeter;outlineConnect=0;targetShapes=umlLifeline;portConstraint=eastwest;newEdgeStyle={&quot;curved&quot;:0,&quot;rounded&quot;:0};" parent="1" vertex="1">
          <mxGeometry x="300" y="1440" width="10" height="10" as="geometry" />
        </mxCell>
        <mxCell id="7aSp7AvTGqziAClSht7B-64" value="" style="html=1;points=[[0,0,0,0,5],[0,1,0,0,-5],[1,0,0,0,5],[1,1,0,0,-5]];perimeter=orthogonalPerimeter;outlineConnect=0;targetShapes=umlLifeline;portConstraint=eastwest;newEdgeStyle={&quot;curved&quot;:0,&quot;rounded&quot;:0};" parent="1" vertex="1">
          <mxGeometry x="510" y="1370" width="10" height="10" as="geometry" />
        </mxCell>
        <mxCell id="7aSp7AvTGqziAClSht7B-65" value="" style="html=1;points=[[0,0,0,0,5],[0,1,0,0,-5],[1,0,0,0,5],[1,1,0,0,-5]];perimeter=orthogonalPerimeter;outlineConnect=0;targetShapes=umlLifeline;portConstraint=eastwest;newEdgeStyle={&quot;curved&quot;:0,&quot;rounded&quot;:0};" parent="1" vertex="1">
          <mxGeometry x="510" y="1350" width="10" height="10" as="geometry" />
        </mxCell>
        <mxCell id="7aSp7AvTGqziAClSht7B-66" value="" style="html=1;points=[[0,0,0,0,5],[0,1,0,0,-5],[1,0,0,0,5],[1,1,0,0,-5]];perimeter=orthogonalPerimeter;outlineConnect=0;targetShapes=umlLifeline;portConstraint=eastwest;newEdgeStyle={&quot;curved&quot;:0,&quot;rounded&quot;:0};" parent="1" vertex="1">
          <mxGeometry x="720" y="1350" width="10" height="10" as="geometry" />
        </mxCell>
        <mxCell id="7aSp7AvTGqziAClSht7B-67" value="" style="html=1;points=[[0,0,0,0,5],[0,1,0,0,-5],[1,0,0,0,5],[1,1,0,0,-5]];perimeter=orthogonalPerimeter;outlineConnect=0;targetShapes=umlLifeline;portConstraint=eastwest;newEdgeStyle={&quot;curved&quot;:0,&quot;rounded&quot;:0};" parent="1" vertex="1">
          <mxGeometry x="720" y="1240" width="10" height="10" as="geometry" />
        </mxCell>
        <mxCell id="7aSp7AvTGqziAClSht7B-68" value="" style="html=1;points=[[0,0,0,0,5],[0,1,0,0,-5],[1,0,0,0,5],[1,1,0,0,-5]];perimeter=orthogonalPerimeter;outlineConnect=0;targetShapes=umlLifeline;portConstraint=eastwest;newEdgeStyle={&quot;curved&quot;:0,&quot;rounded&quot;:0};" parent="1" vertex="1">
          <mxGeometry x="720" y="1130" width="10" height="10" as="geometry" />
        </mxCell>
        <mxCell id="QIsCdMh8Dpqi2mX193nC-1" value="" style="html=1;points=[[0,0,0,0,5],[0,1,0,0,-5],[1,0,0,0,5],[1,1,0,0,-5]];perimeter=orthogonalPerimeter;outlineConnect=0;targetShapes=umlLifeline;portConstraint=eastwest;newEdgeStyle={&quot;curved&quot;:0,&quot;rounded&quot;:0};" vertex="1" parent="1">
          <mxGeometry x="510" y="360" width="10" height="10" as="geometry" />
        </mxCell>
      </root>
    </mxGraphModel>
  </diagram>
</mxfile>
